<?xml version="1.0" encoding="UTF-8" standalone="no"?><!DOCTYPE svg PUBLIC "-//W3C//DTD SVG 1.1//EN" "http://www.w3.org/Graphics/SVG/1.1/DTD/svg11.dtd"><svg width="100%" height="100%" viewBox="0 0 24 24" version="1.1" xmlns="http://www.w3.org/2000/svg" xmlns:xlink="http://www.w3.org/1999/xlink" xml:space="preserve" xmlns:serif="http://www.serif.com/" style="fill-rule:evenodd;clip-rule:evenodd;"><path d="M10,1l1,3l10,0c1.1,0 2,0.9 2,2l0,15c0,1.1 -0.9,2 -2,2l-9,0l-1,-3l-8,0c-1.1,0 -2,-0.9 -2,-2l0,-15c0,-1.1 0.9,-2 2,-2l7,0Zm10.5,20.5c0.55,0 1,-0.45 1,-1l0,-14c0,-0.55 -0.45,-1 -1,-1l-9.04,0l4.54,13.5l-2,2.5l6.5,0Zm-15.729,-12.034c0.05,-0.408 0.214,-0.839 0.493,-1.292c0.274,-0.439 0.58,-0.777 0.919,-1.016c0.568,-0.404 1.27,-0.606 2.107,-0.606c0.772,0 1.461,0.252 2.069,0.755l0.299,-1.39c-0.633,-0.403 -1.412,-0.605 -2.338,-0.605c-0.967,0 -1.851,0.219 -2.653,0.658c-1.3,0.707 -2.104,1.872 -2.413,3.496l-0.867,0l-0.209,1.001l0.979,0c-0.005,0.105 -0.007,0.207 -0.007,0.307c0,0.244 0.007,0.47 0.022,0.679l-0.785,0l-0.209,1.002l1.143,0c0.115,0.537 0.252,0.996 0.411,1.374c0.792,1.873 2.314,2.809 4.565,2.809c0.752,0 1.44,-0.144 2.062,-0.433l0,-1.539c-0.523,0.488 -1.25,0.732 -2.181,0.732c-0.668,0 -1.288,-0.172 -1.861,-0.515c-0.797,-0.478 -1.3,-1.288 -1.509,-2.428l4.445,0l0.21,-1.002l-4.812,0c-0.005,-0.074 -0.007,-0.303 -0.007,-0.687c0,-0.094 0.002,-0.194 0.007,-0.299l5.013,0l0.202,-1.001l-5.095,0Z" style="fill:#fff;fill-rule:nonzero;"/><g><clipPath id="_clip1"><rect x="10.313" y="7.532" width="11.921" height="11.921"/></clipPath><g clip-path="url(#_clip1)"><path d="M13.15,14.971c0.095,1.669 1.383,2.646 3.099,2.623c1.86,0.023 3.076,-0.811 2.981,-2.409c-0.263,-1.454 -1.86,-1.645 -2.909,-1.883c-1.145,-0.381 -2.813,-0.381 -2.79,-2.122c-0.023,-1.264 1.407,-2.003 2.79,-1.86c1.43,0.024 2.646,0.763 2.67,2.289" style="fill:none;stroke:#fff;stroke-width:1.07px;"/><path d="M15.582,7.938l0,11.062m1.502,0l0,-11.062" style="stroke:#fff;stroke-width:0.83px;"/></g></g></svg>