<?xml version="1.0" standalone="no"?>
<!DOCTYPE svg PUBLIC "-//W3C//DTD SVG 20010904//EN"
 "http://www.w3.org/TR/2001/REC-SVG-20010904/DTD/svg10.dtd">
<svg version="1.0" xmlns="http://www.w3.org/2000/svg"
 width="700.000000pt" height="700.000000pt" viewBox="0 0 700.000000 700.000000"
 preserveAspectRatio="xMidYMid meet">
<metadata>
Created by potrace 1.11, written by Peter Selinger 2001-2013
</metadata>
<g transform="translate(0.000000,700.000000) scale(0.100000,-0.100000)"
fill="#000000" stroke="none">
<path d="M3130 6984 c-737 -79 -1428 -387 -1975 -881 -566 -511 -951 -1191
-1094 -1933 -49 -254 -56 -330 -56 -670 0 -347 7 -418 61 -695 92 -463 289
-920 567 -1317 226 -322 528 -626 841 -845 482 -339 982 -534 1587 -620 177
-25 701 -25 878 0 423 60 768 165 1121 342 693 346 1234 888 1575 1580 186
378 276 668 342 1110 25 172 26 716 0 890 -71 481 -207 891 -422 1270 -568
1002 -1559 1652 -2697 1770 -180 18 -552 18 -728 -1z m79 -1746 l96 -288 1010
-2 1010 -3 65 -31 c79 -37 128 -79 168 -142 66 -103 63 -1 60 -1678 l-3 -1519
-27 -57 c-37 -80 -107 -152 -187 -191 l-66 -32 -916 -3 -917 -2 -97 290 -97
290 -826 2 -827 3 -58 29 c-72 37 -150 118 -185 193 l-27 58 -3 1519 c-2 1367
-1 1525 14 1575 38 134 142 233 279 267 38 9 221 12 744 11 l694 -2 96 -287z"/>
<path d="M2560 4679 c-173 -37 -343 -122 -468 -234 -112 -101 -219 -286 -264
-457 l-23 -88 -82 0 c-77 0 -83 -1 -88 -22 -8 -35 -35 -169 -35 -174 0 -2 43
-4 95 -4 l95 0 0 -90 0 -90 -74 0 -74 0 -17 -77 c-9 -43 -19 -88 -22 -100 -5
-23 -4 -23 106 -23 l111 0 6 -27 c18 -82 70 -236 101 -298 113 -224 276 -365
509 -438 219 -69 513 -61 714 19 l40 16 0 149 c0 82 -2 149 -5 149 -2 0 -32
-18 -65 -39 -100 -65 -165 -83 -321 -88 -117 -5 -146 -2 -214 16 -225 62 -375
209 -444 435 -36 118 -84 105 407 108 l427 3 17 75 c9 41 17 85 17 98 l1 22
-465 0 -465 0 0 90 0 90 487 2 487 3 18 85 c9 47 17 91 18 98 0 9 -104 12
-490 12 -560 0 -506 -12 -466 103 76 215 244 374 452 427 95 24 272 27 354 5
67 -18 169 -67 210 -102 17 -14 32 -24 34 -22 5 6 56 246 56 265 0 23 -140 83
-244 105 -123 25 -308 24 -436 -2z"/>
<path d="M3390 4668 c0 -2 73 -220 163 -485 l163 -482 27 52 c54 104 160 189
293 235 l79 28 3 87 3 87 74 0 75 0 0 -79 0 -78 38 -7 c20 -3 52 -6 70 -6 l32
0 0 85 0 85 75 0 75 0 0 -100 c0 -87 2 -101 18 -106 9 -3 49 -21 88 -40 153
-73 257 -222 279 -398 l7 -56 -101 0 c-88 0 -101 2 -101 17 0 9 -7 43 -17 76
-17 63 -82 145 -142 180 l-31 18 2 -286 3 -286 86 -33 c195 -73 305 -188 340
-354 16 -79 -2 -199 -44 -287 -58 -120 -162 -208 -310 -260 l-77 -28 0 -93 0
-94 -75 0 -75 0 0 85 0 85 -70 0 -70 0 0 -85 0 -85 -187 -235 c-104 -130 -189
-240 -191 -246 -2 -5 240 -9 645 -9 l649 0 44 23 c26 13 57 40 75 65 l30 44 3
1396 c3 1560 8 1447 -68 1516 -21 19 -56 39 -77 45 -25 7 -329 11 -920 11
-486 0 -883 -1 -883 -2z"/>
<path d="M4272 3553 l3 -276 62 -18 c34 -9 64 -14 67 -11 3 3 6 132 6 287 l0
282 -52 7 c-98 11 -89 42 -86 -271z"/>
<path d="M4045 3778 c-54 -27 -114 -86 -132 -127 -17 -40 -19 -145 -3 -187 6
-16 23 -42 38 -58 26 -28 134 -86 160 -86 9 0 12 55 12 240 0 270 4 259 -75
218z"/>
<path d="M3890 3191 c0 -15 213 -647 221 -655 5 -6 9 114 9 282 l0 291 -68 20
c-37 12 -89 31 -115 44 -26 14 -47 22 -47 18z"/>
<path d="M4270 2751 l0 -321 70 0 70 0 0 300 c0 334 5 310 -73 324 -21 4 -45
10 -53 13 -12 4 -14 -42 -14 -316z"/>
<path d="M4560 2730 c0 -179 3 -270 10 -270 24 0 112 52 146 87 43 42 69 99
79 166 18 120 -57 219 -211 277 l-24 10 0 -270z"/>
</g>
</svg>
