<?xml version="1.0" encoding="UTF-8" standalone="no"?><!DOCTYPE svg PUBLIC "-//W3C//DTD SVG 1.1//EN" "http://www.w3.org/Graphics/SVG/1.1/DTD/svg11.dtd"><svg width="100%" height="100%" viewBox="0 0 850 100" version="1.1" xmlns="http://www.w3.org/2000/svg" xmlns:xlink="http://www.w3.org/1999/xlink" xml:space="preserve" style="fill-rule:evenodd;clip-rule:evenodd;stroke-linejoin:round;stroke-miterlimit:1.41421;"><path d="M61.65,67.74c0,5.375 -1.868,9.469 -5.602,12.281c-3.734,2.813 -9.32,4.219 -16.758,4.219c-3.812,0 -7.062,-0.258 -9.75,-0.773c-2.687,-0.516 -5.203,-1.274 -7.547,-2.274l0,-11.812c2.657,1.25 5.649,2.297 8.977,3.14c3.328,0.844 6.258,1.266 8.789,1.266c5.188,0 7.781,-1.5 7.781,-4.5c0,-1.125 -0.343,-2.039 -1.031,-2.742c-0.687,-0.703 -1.875,-1.5 -3.562,-2.391c-1.688,-0.89 -3.938,-1.93 -6.75,-3.117c-4.032,-1.688 -6.993,-3.25 -8.883,-4.688c-1.891,-1.437 -3.266,-3.085 -4.125,-4.945c-0.86,-1.859 -1.289,-4.148 -1.289,-6.867c0,-4.656 1.804,-8.258 5.414,-10.805c3.609,-2.547 8.726,-3.82 15.351,-3.82c6.313,0 12.453,1.375 18.422,4.125l-4.312,10.312c-2.625,-1.125 -5.078,-2.046 -7.36,-2.765c-2.281,-0.719 -4.609,-1.078 -6.984,-1.078c-4.219,0 -6.328,1.14 -6.328,3.422c0,1.281 0.679,2.39 2.039,3.328c1.359,0.937 4.336,2.328 8.93,4.172c4.093,1.656 7.093,3.203 9,4.64c1.906,1.438 3.312,3.094 4.218,4.969c0.907,1.875 1.36,4.109 1.36,6.703Z" style="fill-rule:nonzero;"/><path d="M94.509,40.084c-3.031,0 -5.406,0.961 -7.125,2.883c-1.719,1.922 -2.703,4.648 -2.953,8.179l20.062,0c-0.062,-3.531 -0.984,-6.257 -2.765,-8.179c-1.781,-1.922 -4.188,-2.883 -7.219,-2.883Zm2.016,44.156c-8.438,0 -15.032,-2.328 -19.782,-6.984c-4.75,-4.657 -7.125,-11.25 -7.125,-19.782c0,-8.781 2.196,-15.57 6.586,-20.367c4.391,-4.797 10.461,-7.195 18.211,-7.195c7.407,0 13.172,2.109 17.297,6.328c4.125,4.219 6.188,10.047 6.188,17.484l0,6.938l-33.797,0c0.156,4.062 1.359,7.234 3.609,9.516c2.25,2.281 5.406,3.421 9.469,3.421c3.156,0 6.141,-0.328 8.953,-0.984c2.813,-0.656 5.75,-1.703 8.813,-3.141l0,11.063c-2.5,1.25 -5.172,2.18 -8.016,2.789c-2.844,0.609 -6.313,0.914 -10.406,0.914Z" style="fill-rule:nonzero;"/><path d="M158.681,29.912c6.187,0 11.031,2.414 14.531,7.242c3.5,4.828 5.25,11.445 5.25,19.852c0,8.656 -1.805,15.359 -5.414,20.109c-3.609,4.75 -8.523,7.125 -14.742,7.125c-6.156,0 -10.984,-2.234 -14.484,-6.703l-0.985,0l-2.39,5.766l-10.922,0l0,-72.938l14.297,0l0,16.969c0,2.156 -0.188,5.609 -0.563,10.359l0.563,0c3.343,-5.187 8.296,-7.781 14.859,-7.781Zm-4.594,11.437c-3.531,0 -6.109,1.086 -7.734,3.258c-1.625,2.172 -2.469,5.758 -2.531,10.758l0,1.547c0,5.625 0.835,9.656 2.507,12.094c1.672,2.437 4.321,3.656 7.946,3.656c2.937,0 5.273,-1.352 7.007,-4.055c1.735,-2.703 2.602,-6.633 2.602,-11.789c0,-5.156 -0.875,-9.023 -2.625,-11.601c-1.75,-2.578 -4.141,-3.868 -7.172,-3.868Z" style="fill-rule:nonzero;"/><path d="M223.556,83.303l-2.766,-7.125l-0.375,0c-2.406,3.031 -4.883,5.132 -7.429,6.304c-2.547,1.172 -5.868,1.758 -9.961,1.758c-5.032,0 -8.993,-1.437 -11.883,-4.312c-2.891,-2.875 -4.336,-6.969 -4.336,-12.282c0,-5.562 1.945,-9.664 5.836,-12.304c3.89,-2.641 9.758,-4.102 17.601,-4.383l9.094,-0.281l0,-2.297c0,-5.313 -2.719,-7.969 -8.156,-7.969c-4.188,0 -9.109,1.266 -14.766,3.797l-4.734,-9.656c6.031,-3.157 12.719,-4.735 20.062,-4.735c7.032,0 12.422,1.531 16.172,4.594c3.75,3.062 5.625,7.719 5.625,13.969l0,34.922l-9.984,0Zm-4.219,-24.282l-5.531,0.188c-4.156,0.125 -7.25,0.875 -9.281,2.25c-2.032,1.375 -3.047,3.469 -3.047,6.281c0,4.031 2.312,6.047 6.937,6.047c3.313,0 5.961,-0.953 7.946,-2.859c1.984,-1.907 2.976,-4.438 2.976,-7.594l0,-4.313Z" style="fill-rule:nonzero;"/><path d="M284.822,67.74c0,5.375 -1.868,9.469 -5.602,12.281c-3.734,2.813 -9.32,4.219 -16.758,4.219c-3.812,0 -7.062,-0.258 -9.75,-0.773c-2.687,-0.516 -5.203,-1.274 -7.547,-2.274l0,-11.812c2.657,1.25 5.649,2.297 8.977,3.14c3.328,0.844 6.258,1.266 8.789,1.266c5.187,0 7.781,-1.5 7.781,-4.5c0,-1.125 -0.344,-2.039 -1.031,-2.742c-0.688,-0.703 -1.875,-1.5 -3.563,-2.391c-1.687,-0.89 -3.937,-1.93 -6.75,-3.117c-4.031,-1.688 -6.992,-3.25 -8.882,-4.688c-1.891,-1.437 -3.266,-3.085 -4.125,-4.945c-0.86,-1.859 -1.289,-4.148 -1.289,-6.867c0,-4.656 1.804,-8.258 5.414,-10.805c3.609,-2.547 8.726,-3.82 15.351,-3.82c6.313,0 12.453,1.375 18.422,4.125l-4.312,10.312c-2.625,-1.125 -5.079,-2.046 -7.36,-2.765c-2.281,-0.719 -4.609,-1.078 -6.984,-1.078c-4.219,0 -6.328,1.14 -6.328,3.422c0,1.281 0.679,2.39 2.039,3.328c1.359,0.937 4.336,2.328 8.929,4.172c4.094,1.656 7.094,3.203 9,4.64c1.907,1.438 3.313,3.094 4.219,4.969c0.906,1.875 1.36,4.109 1.36,6.703Z" style="fill-rule:nonzero;"/><path d="M318.056,72.849c2.5,0 5.5,-0.546 9,-1.64l0,10.64c-3.563,1.594 -7.938,2.391 -13.125,2.391c-5.719,0 -9.883,-1.445 -12.492,-4.336c-2.61,-2.89 -3.914,-7.226 -3.914,-13.008l0,-25.265l-6.844,0l0,-6.047l7.875,-4.781l4.125,-11.063l9.141,0l0,11.156l14.671,0l0,10.735l-14.671,0l0,25.265c0,2.032 0.57,3.532 1.71,4.5c1.141,0.969 2.649,1.453 4.524,1.453Z" style="fill-rule:nonzero;"/><path d="M337.04,17.349c0,-4.656 2.594,-6.984 7.782,-6.984c5.187,0 7.781,2.328 7.781,6.984c0,2.219 -0.649,3.946 -1.946,5.18c-1.296,1.235 -3.242,1.852 -5.835,1.852c-5.188,0 -7.782,-2.344 -7.782,-7.032Zm14.907,65.954l-14.297,0l0,-52.407l14.297,0l0,52.407Z" style="fill-rule:nonzero;"/><path d="M388.65,40.084c-3.032,0 -5.407,0.961 -7.125,2.883c-1.719,1.922 -2.703,4.648 -2.953,8.179l20.062,0c-0.062,-3.531 -0.984,-6.257 -2.766,-8.179c-1.781,-1.922 -4.187,-2.883 -7.218,-2.883Zm2.015,44.156c-8.437,0 -15.031,-2.328 -19.781,-6.984c-4.75,-4.657 -7.125,-11.25 -7.125,-19.782c0,-8.781 2.195,-15.57 6.586,-20.367c4.391,-4.797 10.461,-7.195 18.211,-7.195c7.406,0 13.172,2.109 17.297,6.328c4.125,4.219 6.187,10.047 6.187,17.484l0,6.938l-33.797,0c0.157,4.062 1.36,7.234 3.61,9.516c2.25,2.281 5.406,3.421 9.469,3.421c3.156,0 6.14,-0.328 8.953,-0.984c2.812,-0.656 5.75,-1.703 8.812,-3.141l0,11.063c-2.5,1.25 -5.172,2.18 -8.015,2.789c-2.844,0.609 -6.313,0.914 -10.407,0.914Z" style="fill-rule:nonzero;"/><path d="M472.04,83.303l-14.297,0l0,-30.61c0,-3.781 -0.671,-6.617 -2.015,-8.508c-1.344,-1.89 -3.485,-2.836 -6.422,-2.836c-4,0 -6.891,1.336 -8.672,4.008c-1.781,2.672 -2.672,7.102 -2.672,13.289l0,24.657l-14.297,0l0,-52.407l10.922,0l1.922,6.703l0.797,0c1.594,-2.531 3.789,-4.445 6.586,-5.742c2.797,-1.297 5.976,-1.945 9.539,-1.945c6.094,0 10.719,1.648 13.875,4.945c3.156,3.297 4.734,8.055 4.734,14.274l0,34.172Z" style="fill-rule:nonzero;"/><path d="M515.915,29.912c6.188,0 11.032,2.414 14.532,7.242c3.5,4.828 5.25,11.445 5.25,19.852c0,8.656 -1.805,15.359 -5.415,20.109c-3.609,4.75 -8.523,7.125 -14.742,7.125c-6.156,0 -10.984,-2.234 -14.484,-6.703l-0.984,0l-2.391,5.766l-10.922,0l0,-72.938l14.297,0l0,16.969c0,2.156 -0.188,5.609 -0.563,10.359l0.563,0c3.344,-5.187 8.297,-7.781 14.859,-7.781Zm-4.593,11.437c-3.532,0 -6.11,1.086 -7.735,3.258c-1.625,2.172 -2.469,5.758 -2.531,10.758l0,1.547c0,5.625 0.836,9.656 2.508,12.094c1.672,2.437 4.32,3.656 7.945,3.656c2.938,0 5.273,-1.352 7.008,-4.055c1.734,-2.703 2.601,-6.633 2.601,-11.789c0,-5.156 -0.875,-9.023 -2.625,-11.601c-1.75,-2.578 -4.14,-3.868 -7.171,-3.868Z" style="fill-rule:nonzero;"/><path d="M580.79,83.303l-2.765,-7.125l-0.375,0c-2.407,3.031 -4.883,5.132 -7.43,6.304c-2.547,1.172 -5.867,1.758 -9.961,1.758c-5.031,0 -8.992,-1.437 -11.883,-4.312c-2.89,-2.875 -4.336,-6.969 -4.336,-12.282c0,-5.562 1.946,-9.664 5.836,-12.304c3.891,-2.641 9.758,-4.102 17.602,-4.383l9.094,-0.281l0,-2.297c0,-5.313 -2.719,-7.969 -8.157,-7.969c-4.187,0 -9.109,1.266 -14.765,3.797l-4.735,-9.656c6.032,-3.157 12.719,-4.735 20.063,-4.735c7.031,0 12.422,1.531 16.172,4.594c3.75,3.062 5.625,7.719 5.625,13.969l0,34.922l-9.985,0Zm-4.218,-24.282l-5.532,0.188c-4.156,0.125 -7.25,0.875 -9.281,2.25c-2.031,1.375 -3.047,3.469 -3.047,6.281c0,4.031 2.313,6.047 6.938,6.047c3.312,0 5.961,-0.953 7.945,-2.859c1.984,-1.907 2.977,-4.438 2.977,-7.594l0,-4.313Z" style="fill-rule:nonzero;"/><path d="M634.743,29.912c1.938,0 3.547,0.141 4.829,0.422l-1.079,13.406c-1.156,-0.312 -2.562,-0.469 -4.218,-0.469c-4.563,0 -8.118,1.172 -10.664,3.516c-2.547,2.344 -3.821,5.625 -3.821,9.844l0,26.672l-14.297,0l0,-52.407l10.829,0l2.109,8.813l0.703,0c1.625,-2.938 3.82,-5.305 6.586,-7.102c2.766,-1.797 5.773,-2.695 9.023,-2.695Z" style="fill-rule:nonzero;"/><path d="M678.243,29.912c6.188,0 11.032,2.414 14.532,7.242c3.5,4.828 5.25,11.445 5.25,19.852c0,8.656 -1.805,15.359 -5.414,20.109c-3.61,4.75 -8.524,7.125 -14.743,7.125c-6.156,0 -10.984,-2.234 -14.484,-6.703l-0.984,0l-2.391,5.766l-10.922,0l0,-72.938l14.297,0l0,16.969c0,2.156 -0.187,5.609 -0.562,10.359l0.562,0c3.344,-5.187 8.297,-7.781 14.859,-7.781Zm-4.593,11.437c-3.532,0 -6.11,1.086 -7.735,3.258c-1.625,2.172 -2.468,5.758 -2.531,10.758l0,1.547c0,5.625 0.836,9.656 2.508,12.094c1.672,2.437 4.32,3.656 7.945,3.656c2.938,0 5.274,-1.352 7.008,-4.055c1.734,-2.703 2.602,-6.633 2.602,-11.789c0,-5.156 -0.875,-9.023 -2.625,-11.601c-1.75,-2.578 -4.141,-3.868 -7.172,-3.868Z" style="fill-rule:nonzero;"/><path d="M709.228,17.349c0,-4.656 2.594,-6.984 7.781,-6.984c5.188,0 7.781,2.328 7.781,6.984c0,2.219 -0.648,3.946 -1.945,5.18c-1.297,1.235 -3.242,1.852 -5.836,1.852c-5.187,0 -7.781,-2.344 -7.781,-7.032Zm14.906,65.954l-14.297,0l0,-52.407l14.297,0l0,52.407Z" style="fill-rule:nonzero;"/><path d="M760.837,40.084c-3.031,0 -5.406,0.961 -7.125,2.883c-1.719,1.922 -2.703,4.648 -2.953,8.179l20.063,0c-0.063,-3.531 -0.985,-6.257 -2.766,-8.179c-1.781,-1.922 -4.188,-2.883 -7.219,-2.883Zm2.016,44.156c-8.438,0 -15.031,-2.328 -19.781,-6.984c-4.75,-4.657 -7.125,-11.25 -7.125,-19.782c0,-8.781 2.195,-15.57 6.585,-20.367c4.391,-4.797 10.461,-7.195 18.211,-7.195c7.407,0 13.172,2.109 17.297,6.328c4.125,4.219 6.188,10.047 6.188,17.484l0,6.938l-33.797,0c0.156,4.062 1.359,7.234 3.609,9.516c2.25,2.281 5.407,3.421 9.469,3.421c3.156,0 6.141,-0.328 8.953,-0.984c2.813,-0.656 5.75,-1.703 8.813,-3.141l0,11.063c-2.5,1.25 -5.172,2.18 -8.016,2.789c-2.844,0.609 -6.312,0.914 -10.406,0.914Z" style="fill-rule:nonzero;"/><path d="M825.103,29.912c1.937,0 3.547,0.141 4.828,0.422l-1.078,13.406c-1.156,-0.312 -2.563,-0.469 -4.219,-0.469c-4.562,0 -8.117,1.172 -10.664,3.516c-2.547,2.344 -3.82,5.625 -3.82,9.844l0,26.672l-14.297,0l0,-52.407l10.828,0l2.109,8.813l0.703,0c1.625,-2.938 3.821,-5.305 6.586,-7.102c2.766,-1.797 5.774,-2.695 9.024,-2.695Z" style="fill-rule:nonzero;"/></svg>