<?xml version="1.0" encoding="UTF-8" standalone="no"?><!DOCTYPE svg PUBLIC "-//W3C//DTD SVG 1.1//EN" "http://www.w3.org/Graphics/SVG/1.1/DTD/svg11.dtd"><svg width="100%" height="100%" viewBox="0 0 512 512" version="1.1" xmlns="http://www.w3.org/2000/svg" xmlns:xlink="http://www.w3.org/1999/xlink" xml:space="preserve" xmlns:serif="http://www.serif.com/" style="fill-rule:evenodd;clip-rule:evenodd;"><rect x="0" y="0" width="512" height="512" style="fill:#1e88e5;"/><path d="M227.748,107.408l14.126,42.378l141.261,0c15.539,0 28.252,12.713 28.252,28.252l0,211.892c0,15.539 -12.713,28.252 -28.252,28.252l-127.135,0l-14.126,-42.378l-113.009,0c-15.539,0 -28.252,-12.714 -28.252,-28.252l0,-211.892c0,-15.539 12.713,-28.252 28.252,-28.252l98.883,0Zm148.324,289.585c7.769,0 14.126,-6.357 14.126,-14.126l0,-197.766c0,-7.769 -6.357,-14.126 -14.126,-14.126l-127.7,0l64.132,190.703l-28.252,35.315l91.82,0Zm-222.19,-169.994c0.707,-5.763 3.023,-11.851 6.964,-18.251c3.871,-6.201 8.194,-10.976 12.982,-14.352c8.024,-5.707 17.941,-8.56 29.764,-8.56c10.905,0 20.638,3.56 29.227,10.665l4.224,-19.635c-8.942,-5.693 -19.946,-8.547 -33.027,-8.547c-13.66,0 -26.148,3.094 -37.477,9.295c-18.364,9.988 -29.721,26.445 -34.086,49.385l-12.247,0l-2.953,14.141l13.83,0c-0.071,1.483 -0.099,2.924 -0.099,4.336c0,3.447 0.099,6.64 0.311,9.592l-11.089,0l-2.953,14.154l16.146,0c1.625,7.586 3.56,14.07 5.806,19.41c11.188,26.458 32.688,39.68 64.486,39.68c10.623,0 20.342,-2.034 29.128,-6.117l0,-21.74c-7.388,6.894 -17.658,10.341 -30.809,10.341c-9.436,0 -18.194,-2.43 -26.289,-7.275c-11.258,-6.753 -18.364,-18.195 -21.316,-34.299l62.791,0l2.966,-14.154l-67.975,0c-0.071,-1.045 -0.099,-4.28 -0.099,-9.705c0,-1.328 0.028,-2.74 0.099,-4.223l70.814,0l2.854,-14.141l-71.973,0Z" style="fill:#fff;fill-rule:nonzero;"/><g><clipPath id="_clip1"><rect x="232.169" y="199.679" width="168.398" height="168.398"/></clipPath><g clip-path="url(#_clip1)"><path d="M272.245,304.764c1.342,23.576 19.536,37.377 43.777,37.052c26.274,0.325 43.452,-11.456 42.11,-34.029c-3.715,-20.54 -26.275,-23.238 -41.093,-26.6c-16.174,-5.382 -39.737,-5.382 -39.412,-29.975c-0.325,-17.856 19.876,-28.295 39.412,-26.275c20.2,0.339 37.378,10.778 37.717,32.335" style="fill:none;stroke:#fff;stroke-width:15.11px;"/><path d="M306.6,205.415l0,156.263m21.217,0l0,-156.263" style="stroke:#fff;stroke-width:11.72px;"/></g></g></svg>