<?xml version="1.0" encoding="UTF-8" standalone="no"?>
<!DOCTYPE svg PUBLIC "-//W3C//DTD SVG 1.1//EN" "http://www.w3.org/Graphics/SVG/1.1/DTD/svg11.dtd">
<svg width="100%" height="100%" viewBox="0 0 500 100" version="1.1" xmlns="http://www.w3.org/2000/svg" xmlns:xlink="http://www.w3.org/1999/xlink" xml:space="preserve" xmlns:serif="http://www.serif.com/" style="fill-rule:evenodd;clip-rule:evenodd;stroke-linejoin:round;stroke-miterlimit:1.41421;">
    <g transform="matrix(9.09217,0,0,8.66044,-1162.36,-885.368)">
        <path d="M135.942,110.083C135.942,110.91 135.645,111.561 135.05,112.037C134.455,112.513 133.627,112.751 132.567,112.751C131.589,112.751 130.725,112.567 129.973,112.2L129.973,110.396C130.591,110.672 131.114,110.866 131.542,110.979C131.97,111.091 132.362,111.148 132.717,111.148C133.143,111.148 133.469,111.066 133.697,110.903C133.925,110.741 134.038,110.498 134.038,110.177C134.038,109.997 133.988,109.838 133.888,109.698C133.788,109.558 133.641,109.423 133.447,109.294C133.252,109.164 132.857,108.958 132.26,108.674C131.7,108.411 131.28,108.158 131.001,107.916C130.721,107.674 130.498,107.392 130.33,107.07C130.163,106.749 130.08,106.373 130.08,105.943C130.08,105.133 130.354,104.496 130.904,104.033C131.453,103.569 132.212,103.337 133.18,103.337C133.656,103.337 134.11,103.394 134.543,103.506C134.975,103.619 135.427,103.778 135.899,103.982L135.272,105.492C134.784,105.291 134.38,105.152 134.06,105.072C133.741,104.993 133.427,104.953 133.118,104.953C132.75,104.953 132.468,105.039 132.272,105.21C132.076,105.381 131.978,105.605 131.978,105.88C131.978,106.051 132.017,106.201 132.097,106.328C132.176,106.455 132.302,106.579 132.476,106.698C132.649,106.817 133.059,107.031 133.706,107.34C134.562,107.749 135.149,108.159 135.466,108.57C135.784,108.982 135.942,109.486 135.942,110.083Z" style="fill-rule:nonzero;"/>
        <path d="M140.352,106.851C139.947,106.851 139.63,106.979 139.4,107.236C139.17,107.493 139.039,107.857 139.005,108.329L141.686,108.329C141.678,107.857 141.554,107.493 141.316,107.236C141.078,106.979 140.757,106.851 140.352,106.851ZM140.621,112.751C139.494,112.751 138.613,112.44 137.978,111.818C137.343,111.196 137.026,110.315 137.026,109.175C137.026,108.001 137.319,107.094 137.906,106.453C138.493,105.812 139.304,105.492 140.339,105.492C141.329,105.492 142.099,105.774 142.651,106.337C143.202,106.901 143.477,107.68 143.477,108.674L143.477,109.601L138.961,109.601C138.982,110.143 139.143,110.567 139.444,110.872C139.744,111.177 140.166,111.329 140.709,111.329C141.131,111.329 141.529,111.286 141.905,111.198C142.281,111.11 142.674,110.97 143.083,110.778L143.083,112.256C142.749,112.423 142.392,112.548 142.012,112.629C141.632,112.71 141.168,112.751 140.621,112.751Z" style="fill-rule:nonzero;"/>
        <path d="M146.44,112.626L143.772,105.623L145.77,105.623L147.123,109.613C147.273,110.118 147.367,110.597 147.404,111.048L147.442,111.048C147.463,110.647 147.557,110.169 147.724,109.613L149.071,105.623L151.069,105.623L148.4,112.626L146.44,112.626Z" style="fill-rule:nonzero;"/>
        <path d="M154.971,106.851C154.566,106.851 154.248,106.979 154.019,107.236C153.789,107.493 153.657,107.857 153.624,108.329L156.305,108.329C156.296,107.857 156.173,107.493 155.935,107.236C155.697,106.979 155.376,106.851 154.971,106.851ZM155.24,112.751C154.113,112.751 153.231,112.44 152.597,111.818C151.962,111.196 151.645,110.315 151.645,109.175C151.645,108.001 151.938,107.094 152.525,106.453C153.111,105.812 153.923,105.492 154.958,105.492C155.948,105.492 156.718,105.774 157.269,106.337C157.82,106.901 158.096,107.68 158.096,108.674L158.096,109.601L153.58,109.601C153.601,110.143 153.762,110.567 154.062,110.872C154.363,111.177 154.785,111.329 155.328,111.329C155.749,111.329 156.148,111.286 156.524,111.198C156.9,111.11 157.292,110.97 157.701,110.778L157.701,112.256C157.367,112.423 157.01,112.548 156.63,112.629C156.25,112.71 155.787,112.751 155.24,112.751Z" style="fill-rule:nonzero;"/>
        <path d="M166.113,112.626L164.203,112.626L164.203,108.536C164.203,108.031 164.113,107.652 163.933,107.399C163.754,107.146 163.468,107.02 163.075,107.02C162.541,107.02 162.155,107.199 161.917,107.556C161.679,107.913 161.56,108.505 161.56,109.331L161.56,112.626L159.649,112.626L159.649,105.623L161.109,105.623L161.366,106.519L161.472,106.519C161.685,106.181 161.978,105.925 162.352,105.752C162.726,105.579 163.151,105.492 163.627,105.492C164.441,105.492 165.059,105.712 165.481,106.153C165.902,106.593 166.113,107.229 166.113,108.06L166.113,112.626Z" style="fill-rule:nonzero;"/>
        <path d="M173.992,112.626L167.591,112.626L167.591,111.279L169.89,108.956C170.571,108.258 171.015,107.775 171.224,107.506C171.433,107.236 171.583,106.987 171.675,106.757C171.767,106.527 171.813,106.289 171.813,106.043C171.813,105.676 171.712,105.402 171.509,105.223C171.307,105.043 171.036,104.953 170.698,104.953C170.343,104.953 169.999,105.035 169.664,105.198C169.33,105.36 168.982,105.592 168.619,105.893L167.566,104.646C168.017,104.262 168.391,103.991 168.687,103.832C168.984,103.673 169.307,103.551 169.658,103.466C170.009,103.38 170.401,103.337 170.836,103.337C171.408,103.337 171.913,103.442 172.351,103.65C172.79,103.859 173.13,104.152 173.372,104.527C173.615,104.903 173.736,105.333 173.736,105.818C173.736,106.239 173.662,106.635 173.513,107.005C173.365,107.374 173.135,107.753 172.824,108.141C172.513,108.53 171.965,109.083 171.18,109.801L170.003,110.91L170.003,110.997L173.992,110.997L173.992,112.626Z" style="fill-rule:nonzero;"/>
        <path d="M180.957,105.517C180.957,106.089 180.784,106.575 180.437,106.976C180.091,107.377 179.604,107.653 178.978,107.803L178.978,107.841C179.717,107.933 180.277,108.157 180.657,108.514C181.037,108.871 181.227,109.352 181.227,109.958C181.227,110.839 180.907,111.525 180.268,112.015C179.63,112.506 178.717,112.751 177.531,112.751C176.537,112.751 175.656,112.586 174.888,112.256L174.888,110.609C175.243,110.789 175.633,110.935 176.059,111.048C176.485,111.16 176.907,111.217 177.325,111.217C177.963,111.217 178.435,111.108 178.74,110.891C179.045,110.674 179.197,110.325 179.197,109.845C179.197,109.415 179.022,109.11 178.671,108.93C178.32,108.751 177.761,108.661 176.993,108.661L176.297,108.661L176.297,107.177L177.005,107.177C177.715,107.177 178.234,107.084 178.562,106.898C178.889,106.712 179.053,106.394 179.053,105.943C179.053,105.25 178.619,104.903 177.751,104.903C177.45,104.903 177.144,104.953 176.833,105.053C176.522,105.154 176.176,105.327 175.796,105.573L174.901,104.239C175.736,103.638 176.732,103.337 177.888,103.337C178.836,103.337 179.585,103.529 180.134,103.914C180.683,104.298 180.957,104.832 180.957,105.517Z" style="fill-rule:nonzero;"/>
    </g>
</svg>
