<svg clip-rule="evenodd" fill-rule="evenodd" viewBox="0 0 24 24" xmlns="http://www.w3.org/2000/svg" xmlns:xlink="http://www.w3.org/1999/xlink"><clipPath id="a"><path clip-rule="evenodd" d="m10.313 7.532h11.921v11.921h-11.921z"/></clipPath><path d="m10 1 1 3h10c1.1 0 2 .9 2 2v15c0 1.1-.9 2-2 2h-9l-1-3h-8c-1.1 0-2-.9-2-2v-15c0-1.1.9-2 2-2zm10.5 20.5c.55 0 1-.45 1-1v-14c0-.55-.45-1-1-1h-9.04l4.54 13.5-2 2.5zm-15.729-12.034c.05-.408.214-.839.493-1.292.274-.439.58-.777.919-1.016.568-.404 1.27-.606 2.107-.606.772 0 1.461.252 2.069.755l.299-1.39c-.633-.403-1.412-.605-2.338-.605-.967 0-1.851.219-2.653.658-1.3.707-2.104 1.872-2.413 3.496h-.867l-.209 1.001h.979c-.005.105-.007.207-.007.307 0 .244.007.47.022.679h-.785l-.209 1.002h1.143c.115.537.252.996.411 1.374.792 1.873 2.314 2.809 4.565 2.809.752 0 1.44-.144 2.062-.433v-1.539c-.523.488-1.25.732-2.181.732-.668 0-1.288-.172-1.861-.515-.797-.478-1.3-1.288-1.509-2.428h4.445l.21-1.002h-4.812c-.005-.074-.007-.303-.007-.687 0-.094.002-.194.007-.299h5.013l.202-1.001z" fill-rule="nonzero"/><g clip-path="url(#a)" fill="none" stroke="#000"><path d="m13.15 14.971c.095 1.669 1.383 2.646 3.099 2.623 1.86.023 3.076-.811 2.981-2.409-.263-1.454-1.86-1.645-2.909-1.883-1.145-.381-2.813-.381-2.79-2.122-.023-1.264 1.407-2.003 2.79-1.86 1.43.024 2.646.763 2.67 2.289" stroke-width="1.07"/><path d="m15.582 7.938v11.062m1.502 0v-11.062" stroke-width=".83"/></g></svg>